<?xml version="1.0" standalone="no"?>
<!DOCTYPE svg PUBLIC "-//W3C//DTD SVG 20010904//EN"
 "http://www.w3.org/TR/2001/REC-SVG-20010904/DTD/svg10.dtd">
<svg version="1.0" xmlns="http://www.w3.org/2000/svg"
 width="315.000000pt" height="315.000000pt" viewBox="0 0 315.000000 315.000000"
 preserveAspectRatio="xMidYMid meet">
<metadata>
Created by potrace 1.14, written by Peter Selinger 2001-2017
</metadata>
<g transform="translate(0.000000,315.000000) scale(0.100000,-0.100000)"
fill="#000000" stroke="none">
<path d="M325 3142 c-6 -5 -39 -19 -75 -32 -87 -32 -177 -119 -208 -203 -12
-32 -22 -65 -22 -73 0 -8 -4 -12 -10 -9 -7 4 -10 -419 -10 -1263 0 -1086 2
-1275 15 -1311 8 -22 11 -41 7 -41 -4 0 0 -6 9 -13 9 -7 19 -25 23 -41 6 -26
28 -56 40 -56 3 0 17 -11 31 -26 14 -14 29 -23 34 -19 5 3 11 1 13 -4 1 -5 10
-11 18 -13 8 -2 21 -9 28 -16 11 -9 286 -12 1306 -12 1435 0 1349 -4 1454 67
76 52 152 168 152 233 0 11 5 20 10 20 8 0 10 385 8 1238 -3 1140 -5 1242 -21
1296 -24 81 -85 164 -153 209 -53 35 -79 45 -164 63 -49 11 -2473 16 -2485 6z"/>
</g>
</svg>
